<svg xmlns="http://www.w3.org/2000/svg" viewBox="0 0 256 256" role="img" aria-labelledby="title desc">
  <title id="title">Care Plan Icon</title>
  <desc id="desc">Custom medical icon with clipboard and checklist marks.</desc>
  <defs>
    <linearGradient id="frame" x1="0" y1="1" x2="1" y2="0">
      <stop offset="0%" stop-color="#4F2AB4"/>
      <stop offset="100%" stop-color="#935AFA"/>
    </linearGradient>
    <linearGradient id="clip" x1="0" y1="0" x2="1" y2="1">
      <stop offset="0%" stop-color="#8D59F5"/>
      <stop offset="100%" stop-color="#5A2ED1"/>
    </linearGradient>
  </defs>

  <rect x="18" y="18" width="220" height="220" rx="34" fill="#EEF0FF" stroke="#6C48D8" stroke-width="6"/>
  <circle cx="128" cy="128" r="90" fill="#F8F7FF"/>
  <circle cx="128" cy="128" r="76" fill="none" stroke="url(#frame)" stroke-width="10"/>

  <rect x="84" y="78" width="88" height="108" rx="14" fill="#FFFFFF" stroke="#5A2ED1" stroke-width="6"/>
  <rect x="104" y="66" width="48" height="20" rx="10" fill="url(#clip)"/>

  <path d="M97 108l7 7 11-11" fill="none" stroke="#5A2ED1" stroke-width="6" stroke-linecap="round" stroke-linejoin="round"/>
  <path d="M97 132l7 7 11-11" fill="none" stroke="#5A2ED1" stroke-width="6" stroke-linecap="round" stroke-linejoin="round"/>
  <path d="M97 156l7 7 11-11" fill="none" stroke="#5A2ED1" stroke-width="6" stroke-linecap="round" stroke-linejoin="round"/>

  <rect x="122" y="108" width="35" height="6" rx="3" fill="#CFC1F8"/>
  <rect x="122" y="132" width="29" height="6" rx="3" fill="#CFC1F8"/>
  <rect x="122" y="156" width="23" height="6" rx="3" fill="#CFC1F8"/>
</svg>

