<svg xmlns="http://www.w3.org/2000/svg" viewBox="0 0 256 256" role="img" aria-labelledby="title desc">
  <title id="title">Diabetes Tracker Icon</title>
  <desc id="desc">Custom medical icon with glucose droplet and meter trend.</desc>
  <defs>
    <linearGradient id="frame" x1="0" y1="1" x2="1" y2="0">
      <stop offset="0%" stop-color="#4F2AB4"/>
      <stop offset="100%" stop-color="#935AFA"/>
    </linearGradient>
    <linearGradient id="drop" x1="0" y1="0" x2="1" y2="1">
      <stop offset="0%" stop-color="#8D59F5"/>
      <stop offset="100%" stop-color="#5A2ED1"/>
    </linearGradient>
  </defs>

  <rect x="18" y="18" width="220" height="220" rx="34" fill="#EEF0FF" stroke="#6C48D8" stroke-width="6"/>
  <circle cx="128" cy="128" r="90" fill="#F8F7FF"/>
  <circle cx="128" cy="128" r="76" fill="none" stroke="url(#frame)" stroke-width="10"/>

  <path d="M128 81c22 25 31 39 31 55 0 18-14 32-31 32s-31-14-31-32c0-16 9-30 31-55z" fill="url(#drop)"/>
  <path d="M128 95c14 16 21 26 21 39 0 11-9 20-21 20s-21-9-21-20c0-13 7-23 21-39z" fill="#F7F4FF" opacity="0.95"/>

  <rect x="89" y="171" width="78" height="20" rx="10" fill="#FFFFFF" stroke="#5A2ED1" stroke-width="5"/>
  <path d="M98 181h17l6-6 8 11 9-8h20" fill="none" stroke="#5A2ED1" stroke-width="4.5" stroke-linecap="round" stroke-linejoin="round"/>
</svg>

