<svg xmlns="http://www.w3.org/2000/svg" viewBox="0 0 256 256" role="img" aria-labelledby="title desc">
  <title id="title">Education Center Icon</title>
  <desc id="desc">Custom medical icon with open book and health cross.</desc>
  <defs>
    <linearGradient id="frame" x1="0" y1="1" x2="1" y2="0">
      <stop offset="0%" stop-color="#4F2AB4"/>
      <stop offset="100%" stop-color="#935AFA"/>
    </linearGradient>
    <linearGradient id="book" x1="0" y1="0" x2="1" y2="1">
      <stop offset="0%" stop-color="#8D59F5"/>
      <stop offset="100%" stop-color="#5A2ED1"/>
    </linearGradient>
  </defs>

  <rect x="18" y="18" width="220" height="220" rx="34" fill="#EEF0FF" stroke="#6C48D8" stroke-width="6"/>
  <circle cx="128" cy="128" r="90" fill="#F8F7FF"/>
  <circle cx="128" cy="128" r="76" fill="none" stroke="url(#frame)" stroke-width="10"/>

  <path d="M128 166c-11-10-26-14-43-14V96c17 0 32 4 43 14 11-10 26-14 43-14v56c-17 0-32 4-43 14z" fill="none" stroke="#5A2ED1" stroke-width="7" stroke-linejoin="round"/>
  <line x1="128" y1="110" x2="128" y2="166" stroke="#5A2ED1" stroke-width="6" stroke-linecap="round"/>

  <circle cx="128" cy="89" r="15" fill="url(#book)"/>
  <line x1="128" y1="82" x2="128" y2="96" stroke="#FFFFFF" stroke-width="4" stroke-linecap="round"/>
  <line x1="121" y1="89" x2="135" y2="89" stroke="#FFFFFF" stroke-width="4" stroke-linecap="round"/>
</svg>

