<svg xmlns="http://www.w3.org/2000/svg" viewBox="0 0 256 256" role="img" aria-labelledby="title desc">
  <title id="title">Vitals Tracker Icon</title>
  <desc id="desc">Custom medical icon with heart outline and electrocardiogram wave.</desc>
  <defs>
    <linearGradient id="frame" x1="0" y1="1" x2="1" y2="0">
      <stop offset="0%" stop-color="#4F2AB4"/>
      <stop offset="100%" stop-color="#935AFA"/>
    </linearGradient>
  </defs>

  <rect x="18" y="18" width="220" height="220" rx="34" fill="#EEF0FF" stroke="#6C48D8" stroke-width="6"/>
  <circle cx="128" cy="128" r="90" fill="#F8F7FF"/>
  <circle cx="128" cy="128" r="76" fill="none" stroke="url(#frame)" stroke-width="10"/>

  <path d="M84 101c0-17 14-31 31-31 8 0 15 3 21 8 6-5 13-8 21-8 17 0 31 14 31 31 0 10-4 18-12 25l-40 39-40-39c-8-7-12-15-12-25z" fill="none" stroke="#5A2ED1" stroke-width="8" stroke-linecap="round" stroke-linejoin="round"/>
  <path d="M66 129h32l11-21 15 39 14-26h52" fill="none" stroke="#7A46E7" stroke-width="8" stroke-linecap="round" stroke-linejoin="round"/>
</svg>

